<?xml version="1.0" encoding="UTF-8"?>
<svg id="Layer_1" xmlns="http://www.w3.org/2000/svg" version="1.1" xmlns:xlink="http://www.w3.org/1999/xlink" viewBox="0 0 5910.21 1221.38">
  <!-- Generator: Adobe Illustrator 30.2.1, SVG Export Plug-In . SVG Version: 2.1.1 Build 1)  -->
  <defs>
    <style>
      .st0 {
        font-family: ChironSungHK-Bold-B5pc-H, 'Chiron Sung HK';
        font-size: 839.94px;
        font-weight: 700;
      }

      .st1 {
        fill: #fff;
      }

      .st2 {
        mask: url(#mask);
      }

      .st3, .st4, .st5, .st6 {
        fill: none;
      }

      .st4 {
        stroke-width: 20px;
      }

      .st4, .st5, .st6 {
        stroke: #000;
        stroke-linecap: round;
        stroke-linejoin: round;
      }

      .st7 {
        fill: #231f20;
      }

      .st5 {
        stroke-width: 26.67px;
      }

      .st8 {
        fill: #597096;
      }

      .st9 {
        fill: #fffaeb;
      }

      .st10 {
        clip-path: url(#clippath);
      }

      .st11 {
        fill: #787878;
      }

      .st6 {
        stroke-width: 34px;
      }
    </style>
    <mask id="mask" x="4158.24" y="-3570.49" width="682.67" height="682.67" maskUnits="userSpaceOnUse">
      <g id="custom">
        <rect id="bg" class="st1" x="4158.24" y="-3570.49" width="682.67" height="682.67"/>
      </g>
    </mask>
    <clipPath id="clippath">
      <rect class="st3" x="4158.24" y="-3570.49" width="682.67" height="682.67"/>
    </clipPath>
  </defs>
  <rect class="st8" x="-202.48" y="2112.52" width="3502" height="3500"/>
  <rect class="st1" x="3297.52" y="2112.52" width="1750" height="1750"/>
  <rect class="st9" x="3297.52" y="3862.52" width="1750" height="1750"/>
  <g>
    <path class="st9" d="M416.03,4612.32v-407.29h271.13c20.52,0,39.27,4.25,56.24,12.73,16.96,8.49,30.58,20.23,40.85,35.22,10.26,15,15.39,32.37,15.39,52.1s-3.16,35.92-9.47,48.54c-6.32,12.64-14.61,22.6-24.86,29.9-10.27,7.31-21.52,12.73-33.74,16.28v2.37c14.21,3.16,27.13,8.58,38.78,16.28,11.64,7.7,21.02,18.45,28.12,32.26,7.1,13.82,10.66,31.58,10.66,53.28s-5.33,40.65-15.98,56.83c-10.66,16.19-24.86,28.81-42.62,37.89-17.76,9.08-37.69,13.62-59.79,13.62h-274.69ZM546.86,4363.69h89.98c6.31,0,11.64-1.48,15.98-4.44,4.34-2.96,7.79-7.2,10.36-12.73,2.56-5.52,3.85-12.43,3.85-20.72s-2.96-16.08-8.88-22.2c-5.92-6.11-13.02-9.18-21.31-9.18h-89.98v69.26ZM546.86,4517.6h99.46c9.07,0,16.37-3.15,21.9-9.47,5.52-6.31,8.29-15.78,8.29-28.42,0-5.92-1.29-11.34-3.85-16.28-2.57-4.93-6.12-8.78-10.66-11.54-4.54-2.76-9.77-4.14-15.69-4.14h-99.46v69.86Z"/>
    <path class="st9" d="M876.61,4612.32v-407.29h255.15c30.39,0,55.74,6.12,76.07,18.35,20.32,12.24,35.61,28.22,45.88,47.95,10.26,19.74,15.39,41.05,15.39,63.94,0,26.05-6.12,49.24-18.35,69.56-12.24,20.33-28.81,36.61-49.73,48.84l79.92,158.66h-146.82l-62.16-136.75h-64.53v136.75h-130.83ZM1007.44,4385h91.76c10.26,0,18.94-4.04,26.05-12.14,7.1-8.08,10.66-18.84,10.66-32.26,0-8.29-1.58-15.59-4.74-21.9-3.16-6.31-7.5-11.34-13.02-15.1-5.53-3.75-11.84-5.62-18.94-5.62h-91.76v87.02Z"/>
    <path class="st9" d="M1299.29,4612.32l148.59-407.29h152.14l148.59,407.29h-138.53l-17.17-57.42h-142.67l-17.17,57.42h-133.79ZM1477.48,4463.73h88.8l-19.54-65.12c-1.58-4.74-3.36-10.45-5.33-17.17-1.98-6.71-3.95-13.81-5.92-21.31-1.98-7.49-3.95-14.89-5.92-22.2-1.98-7.3-3.76-13.71-5.33-19.24h-4.74c-1.58,7.1-3.65,15.2-6.22,24.27-2.57,9.08-5.24,18.45-7.99,28.12-2.77,9.68-5.53,18.85-8.29,27.53l-19.54,65.12Z"/>
    <path class="st9" d="M1797.76,4612.32v-407.29h111.3l126.69,146.22c3.55,3.95,8.29,9.68,14.21,17.17,5.92,7.5,11.93,15.1,18.06,22.79,6.11,7.7,10.75,13.91,13.91,18.65l2.96-1.18c-.4-11.04-.59-22-.59-32.86v-170.79h118.99v407.29h-110.7l-142.67-162.8c-6.72-7.89-12.43-15.1-17.17-21.61-4.74-6.51-9.28-12.73-13.62-18.65l-2.96,1.18c.39,7.5.59,15,.59,22.5v179.38h-118.99Z"/>
    <path class="st9" d="M2290.88,4612.32v-407.29h176.42c46.56,0,85.64,7.31,117.22,21.9,31.57,14.61,55.55,36.91,71.93,66.9,16.37,30,24.57,68.28,24.57,114.85s-8.2,84.36-24.57,114.55c-16.38,30.19-40.36,52.6-71.93,67.19-31.58,14.61-70.65,21.9-117.22,21.9h-176.42ZM2421.72,4514.64h43.22c14.21,0,26.54-1.97,37-5.92,10.45-3.94,19.04-9.67,25.75-17.17,6.71-7.49,11.64-16.77,14.8-27.82,3.15-11.04,4.74-23.48,4.74-37.3v-35.52c0-13.81-1.58-26.24-4.74-37.3-3.16-11.04-8.09-20.32-14.8-27.82-6.71-7.49-15.3-13.22-25.75-17.17-10.46-3.94-22.79-5.92-37-5.92h-43.22v211.94Z"/>
  </g>
  <path class="st9" d="M1980.72,3829.91c31.62-21.92,52.37-58.47,52.37-99.78,0-21.27-5.51-41.27-15.16-58.67-.42-.86-.9-1.71-1.44-2.53l-.05-.08c-2.15-3.66-4.48-7.19-6.99-10.59l-96.46-146.17c-.42-.63-.86-1.23-1.33-1.81,3.25-7.63,5.05-16.01,5.05-24.81,0-27.12-17.08-50.33-41.05-59.44v-231.14c23.97-9.1,41.05-32.31,41.05-59.44,0-35.04-28.51-63.55-63.55-63.55-22,0-41.66,11.07-53.11,28.55-82.71-16.56-167.23-24.95-251.52-24.95s-168.82,8.39-251.52,24.95c-11.45-17.49-31.11-28.55-53.11-28.55-35.04,0-63.55,28.51-63.55,63.55,0,27.12,17.08,50.33,41.05,59.44v231.14c-23.97,9.1-41.05,32.31-41.05,59.44,0,8.8,1.8,17.19,5.05,24.81-1.27,1.56-2.35,3.31-3.19,5.24l-86.67,199.68c-20.58,33.97-31.57,73.02-31.57,113.76,0,.31.01.63.02.94-.01.31-.02.62-.02.94,0,58.81,22.9,114.1,64.49,155.69,41.59,41.59,96.88,64.49,155.69,64.49h627.63c66.91,0,121.34-54.43,121.34-121.34,0-41.31-20.75-77.85-52.37-99.78ZM1243.88,3154.02c-10.23,0-18.55-8.32-18.55-18.55s8.32-18.55,18.55-18.55c8.68,0,16.11,5.9,18.06,14.34l5,21.58,21.66-4.66c85.27-18.35,172.72-27.66,259.92-27.66s174.65,9.31,259.92,27.66l21.66,4.66,5-21.58c1.95-8.44,9.38-14.34,18.06-14.34,10.23,0,18.55,8.32,18.55,18.55s-8.32,18.55-18.55,18.55h-22.5v312.91h22.5c10.23,0,18.55,8.32,18.55,18.55s-8.32,18.55-18.55,18.55c-8.68,0-16.11-5.9-18.06-14.34l-5-21.58-21.66,4.66c-85.27,18.35-172.72,27.66-259.92,27.66s-174.65-9.31-259.92-27.66l-21.66-4.66-5,21.58c-1.95,8.44-9.38,14.34-18.06,14.34-10.23,0-18.55-8.32-18.55-18.55s8.32-18.55,18.55-18.55h22.5v-312.91h-22.5ZM1218.93,3543.92c7.67,3.29,16.1,5.11,24.95,5.11,22,0,41.66-11.07,53.11-28.55,82.71,16.56,167.23,24.95,251.52,24.95s168.82-8.39,251.52-24.95c11.45,17.49,31.11,28.55,53.11,28.55,9.44,0,18.4-2.08,26.46-5.79l43.63,66.11c-3.79-.36-7.62-.55-11.5-.55h-627.63c-37.22,0-73.02,9.18-104.84,26.46l39.64-91.34ZM1911.75,4006.03h-627.63c-96.59,0-175.18-78.58-175.18-175.18,0-.31-.01-.63-.02-.94.01-.31.02-.62.02-.94,0-96.59,78.58-175.18,175.18-175.18h627.63c24.77,0,46.81,11.86,60.77,30.2l5.6,8.49c6.33,11.12,9.97,23.97,9.97,37.65,0,42.09-34.25,76.34-76.34,76.34h-504.79c-12.43,0-22.5,10.07-22.5,22.5,0,.31.01.63.02.94-.01.31-.02.62-.02.94,0,12.43,10.07,22.5,22.5,22.5h504.79c42.09,0,76.34,34.25,76.34,76.34s-34.25,76.34-76.34,76.34Z"/>
  <path class="st8" d="M4604.72,5005.96c31.62-21.92,52.37-58.47,52.37-99.78,0-21.27-5.51-41.27-15.16-58.67-.42-.86-.9-1.71-1.44-2.53l-.05-.08c-2.15-3.66-4.48-7.19-6.99-10.59l-96.46-146.17c-.42-.63-.86-1.23-1.33-1.81,3.25-7.63,5.05-16.01,5.05-24.81,0-27.12-17.08-50.33-41.05-59.44v-231.14c23.97-9.1,41.05-32.31,41.05-59.44,0-35.04-28.51-63.55-63.55-63.55-22,0-41.66,11.07-53.11,28.55-82.71-16.56-167.23-24.95-251.52-24.95s-168.82,8.39-251.52,24.95c-11.45-17.49-31.11-28.55-53.11-28.55-35.04,0-63.55,28.51-63.55,63.55,0,27.12,17.08,50.33,41.05,59.44v231.14c-23.97,9.1-41.05,32.31-41.05,59.44,0,8.8,1.8,17.19,5.05,24.81-1.27,1.56-2.35,3.31-3.19,5.24l-86.67,199.68c-20.58,33.97-31.57,73.02-31.57,113.76,0,.31.01.63.02.94-.01.31-.02.62-.02.94,0,58.81,22.9,114.1,64.49,155.69,41.59,41.59,96.88,64.49,155.69,64.49h627.63c66.91,0,121.34-54.43,121.34-121.34,0-41.31-20.75-77.85-52.37-99.78ZM3867.88,4330.07c-10.23,0-18.55-8.32-18.55-18.55s8.32-18.55,18.55-18.55c8.68,0,16.11,5.9,18.06,14.34l5,21.58,21.66-4.66c85.27-18.35,172.72-27.66,259.92-27.66s174.65,9.31,259.92,27.66l21.66,4.66,5-21.58c1.95-8.44,9.38-14.34,18.06-14.34,10.23,0,18.55,8.32,18.55,18.55s-8.32,18.55-18.55,18.55h-22.5v312.91h22.5c10.23,0,18.55,8.32,18.55,18.55s-8.32,18.55-18.55,18.55c-8.68,0-16.11-5.89-18.06-14.34l-5-21.58-21.66,4.66c-85.27,18.35-172.72,27.66-259.92,27.66s-174.65-9.31-259.92-27.66l-21.66-4.66-5,21.58c-1.95,8.44-9.38,14.34-18.06,14.34-10.23,0-18.55-8.32-18.55-18.55s8.32-18.55,18.55-18.55h22.5v-312.91h-22.5ZM3842.93,4719.97c7.67,3.29,16.1,5.11,24.95,5.11,22,0,41.66-11.07,53.11-28.55,82.71,16.56,167.23,24.95,251.52,24.95s168.82-8.39,251.52-24.95c11.45,17.49,31.11,28.55,53.11,28.55,9.44,0,18.4-2.08,26.46-5.79l43.63,66.11c-3.79-.36-7.62-.55-11.5-.55h-627.63c-37.22,0-73.02,9.18-104.84,26.46l39.64-91.34ZM4535.75,5182.08h-627.63c-96.59,0-175.18-78.58-175.18-175.18,0-.31-.01-.63-.02-.94.01-.31.02-.62.02-.94,0-96.59,78.58-175.18,175.18-175.18h627.63c24.77,0,46.81,11.86,60.77,30.2l5.6,8.49c6.33,11.12,9.97,23.97,9.97,37.65,0,42.09-34.25,76.34-76.34,76.34h-504.79c-12.43,0-22.5,10.07-22.5,22.5,0,.31.01.63.02.94-.01.31-.02.62-.02.94,0,12.43,10.07,22.5,22.5,22.5h504.79c42.09,0,76.34,34.25,76.34,76.34s-34.25,76.34-76.34,76.34Z"/>
  <path d="M8869.79,2396.44c-3.63-132.52-59.91-252.33-147.04-339.46l103.47-245.07c36.31,5.45,68.98-14.52,81.69-45.38,25.41-61.72-36.31-125.26-98.03-99.84-54.46,21.78-63.54,94.4-16.34,130.7l-99.84,232.36c-56.27-49.01-125.26-85.32-199.68-103.47l23.6-90.77c36.31,0,65.35-23.6,74.43-56.27,10.89-39.94-14.52-81.69-54.46-90.77-39.94-10.89-81.69,14.52-92.58,54.46-9.08,32.68,5.45,67.17,38.12,85.32l-23.6,90.77c-94.4-18.15-186.98-7.26-272.3,25.41l-30.86-170.64c54.46-23.6,59.91-98.03,12.71-130.7-56.27-36.31-128.89,12.71-118,78.06,5.45,34.49,34.49,59.91,68.98,61.72l32.68,177.9c-58.09,27.23-108.92,67.17-152.49,112.55l-83.5-119.81c23.6-27.23,25.41-65.35,5.45-92.58-23.6-34.49-70.8-41.75-105.29-18.15-72.61,49.01-14.52,165.19,68.98,132.52l88.95,127.07c-65.35,81.69-103.47,183.35-107.1,294.08-43.57,10.89-78.06,50.83-78.06,98.03,0,56.27,45.38,99.84,99.84,99.84h954.86c56.27,0,99.84-45.38,99.84-99.84,3.63-47.2-29.05-87.14-74.43-98.03h0ZM8838.93,1699.36c27.23,0,47.2,29.05,36.31,54.46-9.08,19.97-30.86,29.05-50.83,19.97-39.94-16.34-27.23-74.43,14.52-74.43ZM7884.08,1937.17c-18.15,12.71-41.75,7.26-54.46-9.08-18.15-25.41,0-61.72,32.68-61.72,38.12,0,52.64,49.01,21.78,70.8ZM8528.51,1722.96c21.78,5.45,34.49,27.23,29.05,47.2-9.08,34.49-54.46,39.94-72.61,10.89-16.34-29.05,9.08-65.35,43.57-58.09ZM8103.73,1739.3c-32.68-21.78-16.34-70.8,21.78-70.8,30.86,0,50.83,34.49,32.68,61.72-12.71,16.34-36.31,21.78-54.46,9.08ZM7998.44,2133.22l107.1,154.3c3.63,5.45,9.08,7.26,14.52,7.26,3.63,0,7.26-1.82,10.89-3.63,9.08-5.45,10.89-16.34,5.45-25.41l-112.55-163.38c38.12-43.57,85.32-79.87,137.96-107.1l30.86,168.82c1.82,9.08,9.08,14.52,18.15,14.52h3.63c9.08-1.82,16.34-10.89,14.52-21.78l-32.68-177.9c79.87-32.68,168.82-43.57,257.77-27.23l-65.35,257.77c-1.82,9.08,3.63,19.97,12.71,21.78h3.63c7.26,0,16.34-5.45,18.15-14.52l65.35-257.77c72.61,18.15,137.96,54.46,192.42,103.47l-39.94,92.58c-3.63,9.08,0,19.97,9.08,23.6s19.97,0,23.6-9.08l34.49-78.06c74.43,79.87,121.63,183.35,125.26,299.53h-927.63c3.63-94.4,38.12-185.16,92.58-257.77ZM8848.01,2558.01h-954.86c-36.31,0-63.54-29.05-63.54-63.54s29.05-63.54,63.54-63.54h954.86c36.31,0,63.54,29.05,63.54,63.54s-29.05,63.54-63.54,63.54Z"/>
  <g class="st2">
    <g id="g15">
      <g id="g17">
        <g class="st10">
          <g id="g19">
            <g id="g25">
              <path id="path27" class="st4" d="M4653.28-3319.77l-379.28,321.86c-2.58,2.19-5.56-.8-3.37-3.37l370.97-437.13c21.94-25.86,58.74-30.4,79.34-9.8h0c20.6,20.6,16.06,57.4-9.8,79.35l-22.29,18.91"/>
            </g>
            <g id="g29">
              <path id="path31" class="st4" d="M4695.11-3395.99c-7.29,7.29-19.11,7.29-26.4,0-7.29-7.29-7.29-19.11,0-26.4,7.29-7.29,19.11-7.29,26.4,0,7.29,7.29,7.29,19.11,0,26.4Z"/>
            </g>
            <g id="g33">
              <path id="path35" class="st4" d="M4345.66-3386.36c-9.25-1.07-19.03-1.63-29.38-1.63-91.37,0-148.12,74.05-148.04,136.9.09,69.7,49.28,140.16,131.77,127.33"/>
            </g>
            <g id="g37">
              <path id="path39" class="st4" d="M4501.87-3276.27c-27.84-41.79-59.03-80.62-110.89-99.59"/>
            </g>
            <g id="g41">
              <path id="path43" class="st4" d="M4692.43-3411.91c44.93-8.18,138.48,33.33,138.48,152.89,0,86.96-89.91,152.72-190.2,127.15-45.81-16.62-75.18-49.55-100.8-86.42"/>
            </g>
          </g>
        </g>
      </g>
    </g>
  </g>
  <g>
    <path class="st11" d="M2013.31-5071.67c34.62,0,62.68-28.06,62.68-62.68,0-34.62-28.06-62.68-62.68-62.68s-62.68,28.06-62.68,62.68c.05,34.6,28.09,62.63,62.68,62.68ZM2013.31-5165.92c17.43,0,31.57,14.13,31.57,31.57s-14.13,31.57-31.57,31.57-31.57-14.13-31.57-31.57,14.13-31.57,31.57-31.57Z"/>
    <path class="st11" d="M2013.31-4667.42c-34.62,0-62.68,28.06-62.68,62.68s28.06,62.68,62.68,62.68,62.68-28.06,62.68-62.68h0c-.05-34.6-28.09-62.63-62.68-62.68ZM2013.31-4573.17c-17.43,0-31.57-14.13-31.57-31.57s14.13-31.57,31.57-31.57,31.57,14.13,31.57,31.57-14.13,31.57-31.57,31.57Z"/>
    <path class="st11" d="M2692.55-4540.97h-.41c-28.37.63-99.21-3.2-147.15-55.6-15.13-16.84-26.72-36.55-34.09-57.95,118.9-188.64,62.37-437.95-126.27-556.85-64.54-40.68-139.28-62.24-215.56-62.19-26.19,0-52.32,2.54-78.02,7.58-218.95-43.01-431.31,99.62-474.32,318.57-43.01,218.95,99.62,431.31,318.57,474.32,51.42,10.1,104.32,10.1,155.75,0,150.86,29.65,305.47-28.98,398.74-151.21,8.21,17.77,19.05,34.21,32.15,48.75,53.26,58.17,128.66,65.8,164.56,65.8h6.4c8.6-.56,15.12-7.99,14.55-16.59-.52-7.97-6.98-14.26-14.96-14.58l.05-.05ZM2169.07-5242.4c205.8-.13,372.73,166.6,372.86,372.4.04,59.7-14.27,118.53-41.72,171.55-4.78-34.05-4.99-68.58-.63-102.68,28.77-249.92-135.97-280.9-137.59-281.18-1.76-.32-3.56-.32-5.32,0-44.49-71.61-110.14-127.62-187.87-160.27l.27.18ZM1640.4-4869.54c-.02-205.95,166.91-372.92,372.86-372.95,205.95-.02,372.92,166.91,372.95,372.86.02,205.95-166.91,372.92-372.86,372.95h-.05c-205.84-.22-372.65-167.02-372.9-372.86ZM2169.07-4496.69h-.27c205.88-85.78,303.24-322.21,217.46-528.09-2.8-6.72-5.78-13.36-8.94-19.92,37.52,16.69,110.71,71.3,91.27,240-6.45,55.92-3.43,104.26,8.3,145.26-69.41,101.79-184.63,162.7-307.83,162.75h0Z"/>
    <path class="st11" d="M1751.03-4894.98c-14.05,0-25.43,11.39-25.43,25.43s11.39,25.43,25.43,25.43,25.43-11.39,25.43-25.43h0c0-14.05-11.39-25.43-25.43-25.43Z"/>
    <path class="st11" d="M2013.31-5035.9c-91.88,0-166.36,74.48-166.36,166.36s74.48,166.36,166.36,166.36,166.36-74.48,166.36-166.36h0c-.1-91.84-74.52-166.26-166.36-166.36ZM2013.31-4734.35c-74.72,0-135.29-60.57-135.29-135.29s60.57-135.29,135.29-135.29,135.29,60.57,135.29,135.29c.05,74.72-60.48,135.33-135.2,135.38h-.09v-.09Z"/>
    <path class="st11" d="M2309.72-4869.54c.02-14.07-11.36-25.5-25.43-25.52-14.07-.02-25.5,11.36-25.52,25.43-.02,14.07,11.36,25.5,25.43,25.52.02,0,.03,0,.05,0,14.05.02,25.45-11.34,25.48-25.39,0-.02,0-.03,0-.05Z"/>
  </g>
  <g id="g5113">
    <g id="g5123">
      <path id="path5125" class="st5" d="M7506.79-3640.04c14.45,2.83,23.02,21.23,19.13,41.11-3.89,19.87-18.76,33.69-33.21,30.86-14.45-2.83-23.02-21.23-19.13-41.11,3.89-19.87,18.76-33.69,33.21-30.86ZM7438.95-3187.74l-32.76,120.52c-1.99,7.31-9.09,16.42-14.54,15.35s-8.6-12.18-7.68-19.7l55.36-454.49c-14.1-21.64-20.31-54.51-17.03-85.69M7487.51-3696.45c9.04-1.35,19.06-1.12,30.13,1.05,98.32,19.25,63.86,148.05,8.66,186.36l-59.36,218.36"/>
    </g>
    <g id="g5127">
      <path id="path5129" class="st5" d="M7783.9-3011.73c-25.33,8.72-165.91,10.71-244.44,10.25-39.15-.23-114.47-13.33-150.42-28.82-149.82-64.52-139.05-208.71-285.52-208.84-98.2-.09-133.42,117.64-53.04,148.71,124.67,48.2,165.61-140.9,198.37-198.71,3.97-7,11.65-25.8,14.77-33.22,5.98-14.25,2.45-1.51,52.98-155.33,16.87-51.34,52.15-94.6,103.92-110.11.36-.11.71-.21,1.07-.32M7472.64-3599.56c76.53-13.13,158.66-14.93,210.66-63.66"/>
    </g>
    <g id="g5131">
      <path id="path5133" class="st5" d="M7439.53-3664.42h0"/>
    </g>
    <g id="g5135">
      <path id="path5137" class="st5" d="M7452.95-3239.21h0"/>
    </g>
  </g>
  <g>
    <path class="st7" d="M978-1549.2c26.85-18.62,44.47-49.65,44.47-84.72,0-18.06-4.68-35.04-12.87-49.82-.36-.73-.76-1.45-1.22-2.15l-.04-.07c-1.82-3.1,1.6,1.68-5.93-8.99-28.83-40.85-73.19-41.54-73.19-41.54-3.21-.3-6.47-.47-9.76-.47H386.52c-31.6,0-62.01,7.8-89.02,22.47,0,0-37.04,11.07-71.12,67.89-34.08,56.82-26.81,62-26.81,96.59,0,.27,0,.53.02.8-.01.26-.02.53-.02.8,0,49.94,19.45,96.89,54.76,132.2,35.31,35.31,82.26,54.76,132.2,54.76h532.92c56.81,0,103.03-46.22,103.03-103.03,0-35.07-17.62-66.1-44.47-84.72ZM919.44-1399.66H386.52c-82.02,0-148.74-66.73-148.74-148.74,0-.27,0-.53-.02-.8.01-.26.02-.53.02-.8,0-82.02,66.73-148.74,148.74-148.74h532.92c21.03,0,39.75,10.07,51.6,25.64l4.76,7.2c5.38,9.44,8.47,20.35,8.47,31.97,0,35.74-29.08,64.82-64.82,64.82h-428.62c-10.55,0-19.1,8.55-19.1,19.1,0,.27,0,.53.02.8-.01.26-.02.53-.02.8,0,10.55,8.55,19.1,19.1,19.1h428.62c35.74,0,64.82,29.08,64.82,64.82s-29.08,64.82-64.82,64.82Z"/>
    <g id="g51131" data-name="g5113">
      <g id="g51231" data-name="g5123">
        <path id="path51251" data-name="path5125" class="st6" d="M705.91-2356.09c14.45,2.83,23.02,21.23,19.13,41.11-3.89,19.87-18.76,33.69-33.21,30.86-14.45-2.83-23.02-21.23-19.13-41.11,3.89-19.87,18.76-33.69,33.21-30.86ZM638.07-1903.8l-32.76,120.52c-1.99,7.31-9.09,16.42-14.54,15.35s-8.6-12.18-7.68-19.7l55.36-454.49c-14.1-21.64-20.31-54.51-17.03-85.69M686.62-2412.51c9.04-1.35,19.06-1.12,30.13,1.05,98.32,19.25,63.86,148.05,8.66,186.36l-59.36,218.36"/>
      </g>
      <g id="g51271" data-name="g5127">
        <path id="path51291" data-name="path5129" class="st6" d="M983.02-1727.79c-25.33,8.72-533.91-227.28-680.38-227.41-98.2-.09-133.42,117.64-53.04,148.71,124.67,48.2,373.02-477.16,373.37-477.27M725.04-2314.99c77.74,31.23,192.74-15.56,244.74-64.3"/>
      </g>
      <g id="g51311" data-name="g5131">
        <path id="path51331" data-name="path5133" class="st6" d="M638.64-2380.48h0"/>
      </g>
      <g id="g51351" data-name="g5135">
        <path id="path51371" data-name="path5137" class="st6" d="M652.06-1955.27h0"/>
      </g>
    </g>
  </g>
  <g>
    <g>
      <path class="st7" d="M1104.25,948.89c26.85-18.62,44.47-49.65,44.47-84.72,0-18.06-4.68-35.04-12.87-49.82-.36-.73-.76-1.45-1.22-2.15l-.04-.07c-1.82-3.1,1.6,1.68-5.93-8.99-28.83-40.85-73.19-41.54-73.19-41.54-3.21-.3-6.47-.47-9.76-.47h-532.92c-31.6,0-62.01,7.8-89.02,22.47,0,0-37.04,11.07-71.12,67.89-34.08,56.82-26.81,62-26.81,96.59,0,.27,0,.53.02.8-.01.26-.02.53-.02.8,0,49.94,19.45,96.89,54.76,132.2,35.31,35.31,82.26,54.76,132.2,54.76h532.92c56.81,0,103.03-46.22,103.03-103.03,0-35.07-17.62-66.1-44.47-84.72ZM1045.69,1098.43h-532.92c-82.02,0-148.74-66.73-148.74-148.74,0-.27,0-.53-.02-.8.01-.26.02-.53.02-.8,0-82.02,66.73-148.74,148.74-148.74h532.92c21.03,0,39.75,10.07,51.6,25.64l4.76,7.2c5.38,9.44,8.47,20.35,8.47,31.97,0,35.74-29.08,64.82-64.82,64.82h-428.62c-10.55,0-19.1,8.55-19.1,19.1,0,.27,0,.53.02.8-.01.26-.02.53-.02.8,0,10.55,8.55,19.1,19.1,19.1h428.62c35.74,0,64.82,29.08,64.82,64.82s-29.08,64.82-64.82,64.82Z"/>
      <g id="g51132" data-name="g5113">
        <g id="g51232" data-name="g5123">
          <path id="path51252" data-name="path5125" class="st6" d="M832.16,141.99c14.45,2.83,23.02,21.23,19.13,41.11-3.89,19.87-18.76,33.69-33.21,30.86-14.45-2.83-23.02-21.23-19.13-41.11,3.89-19.87,18.76-33.69,33.21-30.86ZM764.32,594.29l-32.76,120.52c-1.99,7.31-9.09,16.42-14.54,15.35s-8.6-12.18-7.68-19.7l55.36-454.49c-14.1-21.64-20.31-54.51-17.03-85.69M812.88,85.58c9.04-1.35,19.06-1.12,30.13,1.05,98.32,19.25,63.86,148.05,8.66,186.36l-59.36,218.36"/>
        </g>
        <g id="g51272" data-name="g5127">
          <path id="path51292" data-name="path5129" class="st6" d="M1109.27,770.29c-25.33,8.72-533.91-227.28-680.38-227.41-98.2-.09-133.42,117.64-53.04,148.71,124.67,48.2,373.02-477.16,373.37-477.27M851.29,183.1c77.74,31.23,192.74-15.56,244.74-64.3"/>
        </g>
        <g id="g51312" data-name="g5131">
          <path id="path51332" data-name="path5133" class="st6" d="M764.9,117.6h0"/>
        </g>
        <g id="g51352" data-name="g5135">
          <path id="path51372" data-name="path5137" class="st6" d="M778.32,542.82h0"/>
        </g>
      </g>
    </g>
    <g>
      <path d="M1745.69,936.16V228.94l138.59,12.6c-1.68,12.6-7.56,21-30.24,24.36v280.54h137.75l59.64-77.27s68.03,52.08,108.35,87.35c-2.52,9.24-10.92,13.44-23.52,13.44h-282.22v366.21h196.54l61.31-77.27s68.88,52.08,110.87,88.19c-2.52,9.24-11.76,13.44-24.36,13.44h-758.46l-7.56-24.36h313.3Z"/>
      <path d="M2350.24,769.86l-11.55-505.64,66.06,19.72c18.48-25.34,37.25-54.26,46.49-69.28l52.92,50.59v-20.35l78.11,31.08h165.47l36.12-37.8,61.68,48.46-2.89-8.99h55.44l37.8-47.04,85.67,70.55c-5.88,6.72-13.44,10.08-31.92,13.44l-9.74,448.02,32.42-51.57s43.68,41.16,67.19,68.88c-2.52,9.24-10.08,13.44-21.84,13.44h-782.82l-6.72-23.52h82.1ZM2637.7,868.97c-6.72,10.08-21.84,15.12-49.56,10.92-70.55,51.24-190.67,99.11-314.98,124.31l-3.36-9.24c96.59-47.88,194.02-131.03,238.54-194.87l129.35,68.88ZM2433.6,441.44l28.56-48.72s24.34,24.34,42,46.55v-149.48l-3.36-1.23c-13.9,5.46-37.18,13.26-62.22,20.3l-11.92,3.25-3.96,1.02,2.77,128.3h8.14ZM2429,605.23h4.6l29.4-51.24s22.79,24.45,41.16,46.65v-137.87c-2.89,1.55-6.65,2.18-10.92,2.18h-67.27l3.03,140.27ZM2432.56,769.86h71.6v-142.6l-9.24,1.49h-65.41l3.05,141.11ZM2667.1,378.45l32.76-42.84s32.04,26.83,54.6,49.55v-85.67h-177.23v470.36h177.23v-374.12c-2.61,5.09-8.71,7.07-16.8,7.07h-142.79l-6.72-24.36h78.95ZM2602.42,447.32l50.4,22.68h22.68l25.2-24.36,50.4,39.48c-3.36,3.36-11.76,8.4-21.84,10.08v182.27c0,5.88-24.36,16.8-41.16,16.8h-7.56v-37.8h-31.08v37.8c0,5.04-20.16,15.96-39.48,15.96h-7.56v-262.9ZM2649.46,493.52v139.43h31.08v-139.43h-31.08ZM2940.08,984.88c-31.08-45.36-93.23-105.83-195.71-151.19l4.2-10.08c449.37,46.2,276.34,244.42,191.5,161.27ZM2899.33,605.23l3.07-140.27h-53.03l-7.56-23.52h61.11l3.06-140.27h-55.76l-1.06-3.3c-4.11,4.13-11.54,7.33-20.78,9.18v462.8h67.38l3.07-141.11h-52.81l-7.56-23.52h60.89Z"/>
      <path d="M3743.9,234.82c-2.52,14.28-14.28,21-32.76,22.68-18.26,16.86-47.67,41.34-69.99,59.63h114.51l44.52-50.4,84.83,65.52c-5.04,6.72-12.6,11.76-31.08,15.12v233.5c0,4.2-31.08,20.16-78.95,20.16h-15.96v-23.52h-59.64v89.87h72.23l40.32-46.2,92.39,68.04c-5.04,6.72-16.8,15.12-34.44,17.64v137.75c0,55.44-11.76,87.35-98.27,94.91-.84-25.2-1.68-43.68-8.4-56.28-5.88-10.92-14.28-20.16-37.8-24.36v-11.76s31.08,2.52,42.84,2.52c9.24,0,11.76-4.2,11.76-13.44v-144.47h-80.63v291.46c-.84,5.04-28.56,22.68-74.75,22.68h-16.8v-314.14h-76.43v219.22c0,9.24-39.48,29.4-77.27,29.4h-12.6v-278.44c-13.08,22.25-43.42,29.37-71.39,3.78-2.87-38.77-20.47-83.06-38.64-118.15v428.93c0,9.24-40.32,28.56-76.43,28.56h-19.32v-344.58c-33.38,54.29-74.37,103.45-122.63,147.19l-10.08-10.08c61.47-94.58,100.76-224.64,122.03-348.57h-101.03l-6.72-24.36h118.43v-205.78l126.83,12.6c-2.52,12.6-8.4,21-31.08,24.36v168.83h5.88l42-65.52s47.88,46.2,74.75,76.44c-2.52,9.24-10.92,13.44-22.68,13.44h-99.95v77.27c84.44,29.76,115.17,72.86,117.21,106.17l87.74,34.94h71.39v-89.87h-54.6v19.32c0,5.88-27.72,21.84-73.91,21.84h-15.96v-340.17l99.11,38.64h31.93c4.75-29.18,10.42-72.5,13.42-102.47l136.07,20.16ZM3759.02,434.72v-94.07h-205.78v94.07h205.78ZM3553.23,553.99h205.78v-95.75h-205.78v95.75Z"/>
      <path d="M4068.12,1005.04h-15.96v-334.75c-31.92,27.61-67.01,52.76-104.99,74.37l-7.56-10.08c82.99-82.21,156.51-206.04,190.56-314.97h-167.05l-7.56-23.52h172.19l50.4-49.56,83.99,72.23c-5.04,8.4-13.44,10.92-32.76,11.76-20.97,49.42-50.68,99.59-88.19,146.81v21.92l29.8,10.77c14.38-26.9,30.2-64.79,44.11-101.39l69.71,42.53v-234.03l104.99,37.8h62.16v-132.71l124.31,10.92c-1.68,11.76-8.4,20.16-31.08,23.52v98.27h74.75l47.04-47.88,83.15,79.79c-6.72,6.72-15.12,8.4-31.92,9.24-24.36,31.08-67.19,73.91-103.31,99.11l-8.4-5.88c7.36-30.76,15.25-75.36,19.84-110.03h-81.15v167.99h35.28l52.08-52.08,89.03,78.95c-6.72,9.24-15.12,11.76-35.28,13.44-24.67,85.62-60.93,162.6-115.82,228.01,52.87,42.26,115.67,72.36,184.69,95.37l-1.68,9.24c-41.16,6.72-71.39,36.12-87.35,81.47-62.08-34.87-112.43-75.55-152.33-128.66-67.47,58.22-155.98,103.8-272.68,133.7l-5.88-10.92c104.98-43.92,183.93-105.75,241.41-181.34-33.66-63.41-56.96-142.02-71.34-242.83h-30.77c-1.71,141.15-23.42,316.74-200.62,430.89l-9.24-7.56c103.08-124.82,118.91-278.99,120.04-425.48-5.22,1.54-11.56,1.54-18.41-.37-21.94,18.51-47.23,37.02-73.14,51.35,119.84,63.36,62.73,163.03,1.75,117.48-7.22-36.12-30.36-77.87-53.76-111.19v349.73c0,5.88-29.4,28.56-73.07,28.56ZM4076.51,349.05c-6.72-45.36-33.6-96.59-58.8-129.35l6.72-5.04c220.9,34.44,136.91,198.22,52.08,134.39ZM4451.97,379.29h-77.27v167.99h77.27v-167.99ZM4584.88,571.63h-164.32c18.92,77.91,50.73,139.35,92.49,188.4,33.37-57.03,56.8-120.3,71.82-188.4Z"/>
      <path d="M5115.52,457.4c-4.2,8.4-12.6,13.44-32.76,10.08-21.1,25.16-46.64,52.84-75.59,81.06l35.27,13.01c-3.36,7.56-10.92,13.44-26.04,15.96v402.33c-1.68,7.56-42.84,26.04-80.63,26.04h-18.48v-377.78c-39.91,31.91-83.03,62-127.67,87.16l-8.4-8.4c87.35-89.87,174.71-228.46,215.02-317.5l119.27,68.04ZM5099.56,288.57c-5.04,8.4-13.44,13.44-32.76,9.24-59.63,57.12-157.07,125.99-257.02,170.51l-7.56-9.24c72.23-66.36,149.51-171.35,184.79-239.38l112.55,68.88ZM5437.21,496.04l52.92-68.88s59.63,46.2,94.91,78.95c-2.52,9.24-11.76,13.44-23.52,13.44h-121.79v357.81c0,67.2-19.32,113.39-144.47,121.79-1.68-31.08-9.24-56.28-26.88-70.55-18.48-14.28-42.84-26.04-99.95-34.44v-10.92s125.15,7.56,149.51,7.56c15.12,0,21-5.04,21-16.8v-354.45h-242.74l-6.72-23.52h347.73ZM5412.85,302.01l50.4-66.35s57.96,45.36,92.39,77.27c-2.52,9.24-11.76,13.44-22.68,13.44h-389.73l-6.72-24.36h276.34Z"/>
    </g>
  </g>
  <text class="st0" transform="translate(3965.41 -1216.11)"><tspan x="0" y="0">上興棉被行</tspan></text>
</svg>